<?xml version="1.0" encoding="utf-8"?>
<!-- Generator: Adobe Illustrator 27.3.1, SVG Export Plug-In . SVG Version: 6.00 Build 0)  -->
<svg version="1.1" id="Layer_1" xmlns="http://www.w3.org/2000/svg" xmlns:xlink="http://www.w3.org/1999/xlink" x="0px" y="0px"
	 viewBox="0 0 1024 768" style="enable-background:new 0 0 1024 768;" xml:space="preserve">
<style type="text/css">
	.st0{fill-rule:evenodd;clip-rule:evenodd;fill:#831ABA;}
	.st1{fill-rule:evenodd;clip-rule:evenodd;}
	.st2{fill-rule:evenodd;clip-rule:evenodd;fill:#B26C46;}
	.st3{fill-rule:evenodd;clip-rule:evenodd;fill:#18C493;}
	.st4{fill-rule:evenodd;clip-rule:evenodd;fill:#79A2CC;}
	.st5{fill-rule:evenodd;clip-rule:evenodd;fill:#E510DB;}
	.st6{fill-rule:evenodd;clip-rule:evenodd;fill:#E80037;}
	.st7{fill-rule:evenodd;clip-rule:evenodd;fill:#C4F969;}
	.st8{fill-rule:evenodd;clip-rule:evenodd;fill:#FF6C8F;}
	.st9{fill-rule:evenodd;clip-rule:evenodd;fill:#C61CBE;}
	.st10{fill-rule:evenodd;clip-rule:evenodd;fill:#85892B;}
	.st11{fill-rule:evenodd;clip-rule:evenodd;fill:#3BF4B1;}
</style>
<g id="Character_x2F_float">
	<path id="Accent" class="st0" d="M608.6,97.7c0.2,2.2,2.8,0.5,3,1.7c0.1,0.7-2.5,2.6-3,3.1c1.8,1.2,4.1-1.5,5.5-2.7
		c0.7,0.8,0.9,1.2,0.3,2.2c-1.1,1.7-1.1-0.5-2.4,0.6c0.6,1,1.1,0.4,1.8,0.2c-0.3,2,0.4,0.7,0.9,2c0.4,1,0.4,1.8,0.5,2.9
		c-0.6,1.6-1.3,3.2-1.9,4.8c-0.8,1.9-0.5,2.5-2.4,1.9c0.2-0.4,1.6-2.3,1.5-2.8c-0.1-0.5-2.1-1.3-2.6-1.8c-0.9-0.8-0.9-1.5-1.5-2.4
		c0.2-0.8,0.1-1.2-0.5-1.1l-0.6,1.9c0.1,1.3,1.1,1.2,1.7,2.5c0.9,1.9,0.4,0.8-0.4,2.3c-0.8,1.5-0.8,3.5-2.1,4.2
		c0.7,0.3,1.3,0.6,2,0.9c-1.5,1.8,1.7,0.9,2.2,0.8c-0.5,1.2-1.1,2.5-1.6,3.7c-1.6-1-2.4-2.8-3.5-4.4l-2.5,5c0.8-0.1,1.6-0.2,2.5-0.2
		c-0.1,0.2-1.2,1.8-1.1,2.2c0.4,1.5,3.2,0.6,2.9,2.5c0,0.2-2.6,3-3,3.2c1.3,0.6,1.8,0.4,1.4,2l-1.8-1.1c-0.5,1-1.1,1.9-1.4,3
		c0.1,0.7-0.1,1.3-0.3,2c-0.3,0.6-0.7,1.1-1.2,1.5c-0.3,1-0.5,6.3,0,7.1c0.9-1.3,3,1-0.5,1c-1.5,0-1.4-0.3-2,1.1
		c-0.5,1.1-0.7,2.1,0.6,2.2c-1,2.1-0.8,3.7-0.9,5.9c-0.1,1.8-0.5,3.6-0.9,5.3c0.3-0.5,0.6-1,0.9-1.4c0.8,1.9,0.2,3.5-0.2,5.6
		c-0.9-1.2-1,1-1.7,0.7c-1.5-0.5-0.4-0.8-1-1.9c-0.5-0.9-0.5-1.2-1.5-1.7c-1.3-0.7-3.6-0.8-5.1-1c-2.5-0.4-5-0.6-7.5-0.7
		c-9.4-0.4-18.7-0.5-28.1,0c-8.6,0.5-17.5,1.8-25.9,3.6c-9,1.9-17.8,3.6-26.6,6.8c-1.7,0.6-3.4,1.9-5.1,2.3c-1.6,0.4-3.2,0.4-4.9,1
		c-4,1.5-8.1,2.6-12.2,4c-4.3,1.5-9,2.8-13.2,4.9c-1.8,0.9-3.4,2.2-5.2,3.1c-1.7,0.9-4.5,1.7-5.4,3.7c-0.3,0.8-0.3,1.4-0.1,2.2
		c0.4,1.6,0.8,1.5,2,1.4c1.6-0.2,3.8-1.5,5.3-2.1c4.4-1.5,8.8-2.7,13.2-3.8c7.9-2.1,15.9-5.9,23.8-7.3c4.7-0.9,9.1-3.2,13.7-4.1
		c1-0.2,4-1.8,4.8-1.2c0.2,0.1,0.8,1.9,1,2.3c0.7,1.5,1.5,2.9,2.4,4.2c2.8,4,6.5,7.2,9.9,10.7c3.8,3.9,7.1,8.3,10.7,12.5
		c0.3-0.4,0.6-0.8,0.9-1.1c-0.3,2.7,1.5,4.6,3.1,6.4c1.8,2.2,3.3,4.2,4.7,6.6c1.2,2,2.7,3.8,4,5.6c1.3,1.8,2.2,4,3.4,5.9
		c2.7,4.5,5.4,9,8.2,13.4c1.3,2.1,2.3,4.4,3.4,6.8c0.8,1.9,3.3,5.7,3.3,7.5c-0.2,0.9,1.6,6.3-0.3,3.7c-0.3,0.5-0.6,1-0.9,1.5
		c0.5-0.2,1.1-0.5,1.6-0.7c-1.6,1.6,1.4,1.8,1.5,2.6c-0.3,0.3-0.5,0.6-0.8,0.8c-0.5,1-1,1.1-1.8,0.4c-0.8,0.1-1-0.4-1.9-0.1
		c0.9,1.4,1.9,0.5,2.4,2.5c0.4,1.7-0.8,2.1-2.1,3.1l-0.1,0.1l0,0.1c-0.3,0.9-1.1,0.5-1.9,0.3c-2.1-0.5-4.4-1.4-6.4-2
		c-4.4-1.5-8.8-2.7-13.4-3.7c-10.4-2.3-20.7-2.2-31.2-2.9c0.3-1.2,0.3-1.1,0-1.9c0.4,1-2.1-0.3-0.2,1.9c-4.9,0.9-10.1,0.2-15.1,0.5
		c0.2-0.6,0.8-1.2,0.3-1.6c-2.3,3.6-10.2,2.1-14,2.6c-2.3,0.3-4.5,0.9-6.8,1.3l-1,0.2c-0.8,0.1-1.6,0.3-2.4,0.5
		c-1,0.3-2.7,1.5-3.6,1.2c1.4-3-0.2-0.4-0.4-0.4c-0.7,0.1-1.8,0.3-2.7,0.3c1.1-4.7,2.9-8.9,3.7-13.7c0.5-3,1.7-7.8-1-9.9
		c-1.5-1.2-4-1.4-5.7-1.8c-1.9-0.4-5.3-0.4-6.9-1.6c-1.3-0.9-1.6-1.7-3.3-2.4c-2-0.8-2.9-1.6-4.9-0.9c0.8-1.1,1.9-1.9,0.4-3
		c-0.6-0.5-1.9,0.2-2.1-0.8c-1.2,0.9-0.9,1.6-1.2,2.8c0,0.5,0.2,1,0.4,1.5c-0.6,0.3-1.2,0.5-1.9,0.8c0.4-1.1-0.8-0.5-1-1
		c-0.3-0.8-0.1-2.1-0.1-3c-1.3,0.4-2.6,1-3.2,2.4c-1.6-1-0.9-1.1-0.1-2.6c-1.3-0.3-1.6,0.4-1.8,1.6c-0.7-0.2-1.4-0.5-2.1-0.7
		c1.6,0,1.9-1.3,2-2.8c-0.6,0.2-1.2,0.4-1.8,0.6c-0.1,0.7-0.3,1.4-0.4,2.1c-1,0.9-3.5-0.7-4.3-1.2c-2.8-1.6-3.9-2-3.5-5.6
		c0.3-3,1.1-6,1.2-9c0.2-3.4-0.2-6.9-0.5-10.3c-0.5-6.5-1.4-12.8-1.7-19.3c-0.2-3.5-0.3-7-0.5-10.5c-0.1-2.8-1-5.9,2.2-6.1
		c-0.4-1.4,0.8-2.9,2-3.7c0.4-1,0.9-1.1,1.4-0.3c0.4,0.1,0.9,0.1,1.2-0.2c1.8-0.4,3.9-3.2,5.5-4.1c1.6-1,5-2.4,6.1-4
		c1.1-1.6-0.6-1.4-0.2-2.8c0.5-2,2.1,0.9,2.4,1.2c0.6-0.6,2.7-1.7,2.6-2.6c-0.5-0.1-1-0.2-1.5-0.3c0.6-0.3,1.8-1.4,2.5-1.5
		c1.1-0.2,0.7-0.5,1.6,0.8c0.3-0.5,1.1-2.2,1.5-2.6c0.2-0.2,1.6-0.3,1.8-0.4c1.5-0.6,1.3-1.8,2.4-2.4c0.5-0.3,1.2,0.2,1.6-0.1
		c0.7-0.3,0.7-1.4,1.3-1.9c0.5-0.4,1.9-0.1,2.6-0.3c1.1-0.4,1-0.8,1.8-1.6c1.1-1.1,2.2-0.9,3.4-1.8c1.3-0.9,1.1-2.8,2.3-3.1
		c1.6-0.5,2,1.1,2.9-0.5c0.2-0.4-0.7-0.9-0.1-1.5c0.7-0.7,1,0.1,1.3,0.7l1.1-2.2c1.7,1,1-0.3,2.3-1c0.6-0.3,1.1,0.3,1.7-0.1
		c0.5-0.3,0.6-0.9,0.9-1.2c0.7-0.7,1-1.7,2-2c-0.4,0.1,2.6,0,2.4-0.1c-0.3-0.5-0.6-0.9-0.9-1.4c1.6,0,2.9,0.2,4.4-0.3
		c0.5-0.2,1.4-0.5,1.8-0.8c1.2-1,0.9-0.8,0.9-2.6c1.7,1.2,3.8,0.8,5.5-0.6c0.9-0.7,1.4-1.5,2.4-2.2c0.4-0.2,0.8-0.4,1.2-0.6
		c0.5-0.6,1.1-0.6,1.6,0c0.8-0.2,0.7-0.4,1.3-0.8c0.2-0.4,0.3-0.7,0.5-1c0.6-0.1,1.2-0.2,1.8-0.4c2.4-0.7,3.8-2.4,6-0.9
		c0.3-0.6,0.6-1.2,0.8-1.8c0.9,1.6,1.6,0.1,2.8-0.6c0.5-0.3,1.2-0.3,1.7-0.6l0.8,0.2c0.2-0.7,0.4-1.5,0.7-2.2
		c0.5,0.2,2.2,1.2,2.8,1.2c0.8-0.1,1.7-1.5,2.4-1.7c1.1-0.4,0.7,0.1,1.8,0.1c0.9,0,1.3,0.1,2-0.6c-2.5-0.7,0.7-1,1.7-1.3
		c1.6-0.4,2.5,0,3.6-1.4h-1.2c1.2-1.1,0.8-0.7,2-0.6c0.4,0,2.1,1,2.1-0.3c1.6,1,1.6,1,3.3,0.6c0.7-0.2,1.3-0.9,2.1-0.9
		c0.8,0,1.3,0.4,2,0.3c0.4,0,1.9-0.6,2.4-0.8c0.8-0.3,1.3-1,2-1.2c0.8-0.3,1.9,0.1,2.7-0.2c2.6-0.6,4.1-2.3,6.9-1.4
		c0.3-2.7,3.4-2.1,5.1-1.8c1.2,0.2,1.8,0.7,3,0.1c1-0.5,1.5-1.3,2.6-1.7c0.8-0.3,2-0.5,2.8-0.7c0.5-0.2,1.1-0.2,1.7-0.2
		c0.6,0.1,1,0.4,1.4,0.8l0.1,0.1c0.1-0.2,1.4-1.3,1.3-1.1c1-0.8,1.4-0.5,2-2.2l-2.1-0.5c1.1-0.1,1.9-0.2,2.9,0.2
		c0.7,0.3,1.8,2,2.5,2c1.2,0,1.6-1.8,1.5-2.8c1,2.5,1.9,3,4.2,1.7c0.3-0.2,0.5-0.3,0.8-0.5c0.5-0.6,1.1-0.6,1.6,0l1,0.6
		c0.4-0.7,0.8-1.4,1.1-2.1c0.8,1.2,1.6,1.3,2.9,1c0.9-0.2,2.8-2,3.5-2c0.4,0,0.9,1,1.5,1.2c1.1,0.3,2.8-0.5,3.1-1.6
		c0.2,0.5,0.4,0.9,0.6,1.4C607.6,98.7,608.1,98.2,608.6,97.7z M569.9,269.7L569.9,269.7L569.9,269.7L569.9,269.7L569.9,269.7z
		 M568.6,267.3v2.2l0.7,0.1l0.6,0.1l0-0.1C569.9,268.5,569.4,267.7,568.6,267.3z M508.6,258.7c-0.2,0.7-0.4,1.4-0.6,2.1
		c0.7,0.1,1.4,0.1,2.1,0.2C509.6,260.2,509.1,259.4,508.6,258.7z M424.8,203.4c1.6,0.5,1.5,0.4,1.9,2c1.8,8.8-3.7,18.9,0.3,27.3
		c-11.8-0.1-23.7,0.2-35.4,1.6c0-4.8,0.1-9.6-0.2-14.4c-0.2-2.2-0.4-4.3-0.6-6.5c-0.3-2.8-0.2-2.6,1.9-3.1c1.1-0.2,1.5-1,2.6-1.5
		c0.8-0.3,1.1,0.1,1.9,0.2c1.4,0.2,1.4,0,2.7-0.3c2.7-0.6,5.1-0.4,7.2-2.6c1.1-0.1,0.8,1,1.5,0.9c0.6-0.1,0.9-1.2,1.5-1.5
		c1.8-0.9,4.8-0.6,6.8-0.9c2-0.3,3.8-1.2,5.7-1.5C423.5,203.1,424,203.2,424.8,203.4z M447.6,228.9c-0.4,1.5-2.1-0.5-2.1,0.7l0,0.1
		l0,0c0.1-0.2,1.8,2.2,1.7,2.1c0.9,0.7,1.4,0.7,2.5-0.2C447.8,231.6,448,230.4,447.6,228.9z M452.8,231.1c0.7,0.4,0.9-0.6,1.2-1.2
		C453.2,229.4,453.1,230.4,452.8,231.1z M450.7,224.4c0.3,1,0.2,1.8,0.2,2.8c1.6-0.2,2-0.4,2.1-2.1l-0.8,0.6
		C451.7,224.7,451.6,224.6,450.7,224.4z M438.6,226.1c0.4-0.2,0.7-0.5,1.1-0.7C439.1,224.6,438.2,225.5,438.6,226.1z M442.5,211.3
		c0.5-0.3,0.9-0.5,1.4-0.8C442.7,208.9,442.6,209.5,442.5,211.3z M440.9,198.6h-1.8C439.5,199.8,440.9,200.1,440.9,198.6z
		 M614.5,127.4c0.4,0.3,0.8,0.5,1.2,0.8c-1.1,1-2.3,2.1-1.3,3.3c0.8,1,4.6,1.4,5.7,1.8c-0.4,0.5-1.2,1.8-1.7,2.2
		c-0.4,0.3-0.8-0.8-1.7,0.3c1.4,0.8,1,0.2,0.7,1.9c-0.2,1-1,2.1-1.4,3c-1.1,2.2-2.2,4.3-3.3,6.5c-2.3,4.4-4.7,8.7-7.3,12.9
		c-0.4-2.4,0.8-5.1,1.4-7.4c0.8-2.9,1.6-5.8,2.4-8.7C610.8,138.2,612.2,132.6,614.5,127.4z M552.5,134.7c-1.2,0.3-1.9,0.5-3.1,0.8
		C551.2,136.1,551.2,136.1,552.5,134.7z M603.6,123.9c-1.5,0.7-1.6,1.3-0.4,2.2C603.3,125.4,603.4,124.9,603.6,123.9z M603.4,106.4
		c-0.2,0.9-1.4,0-1.7,0.7c-0.6,1.6,1.4,1.4,2.1,1.3C603.7,107.7,603.6,107,603.4,106.4z M611.8,105.2c-0.4,2-0.4,2,1.4,2.3
		C612.7,106.7,612.3,106.1,611.8,105.2z M578.7,103.8L578.7,103.8C578.7,103.8,578.7,103.8,578.7,103.8L578.7,103.8L578.7,103.8z"/>
	<g id="Ink" transform="translate(-1.000045, 19.255000)">
		<path id="Fill-1"  stroke="currentColor" fill="none" class="st1" d="M349.1,295c-0.3,1.5-1,2.3-0.2,3.7c0.6,1.2,2.4,2,3.6,1.7L349.1,295z M317,240.6l-5.8,2.2
			c1.6,1.7,3.1,3.5,4.9,4.9L317,240.6z M413.3,246.1c-2.8-1.5-5.9-1.7-9-1.9c0.5,2.7,0.9,5.4,1.4,8.1
			C408.3,250.3,410.8,248.2,413.3,246.1L413.3,246.1z M346.5,454.7c-0.6-1.1-4.3-9.2-5.1-8.8c-0.4,0.2-0.5,4.8-0.5,5.4
			c-0.2,2.3-0.4,4.6-0.7,6.9C342.4,457.3,344.8,456.6,346.5,454.7L346.5,454.7z M320,388.6c0.6,1.8,1.1,3.6,1.7,5.4
			c0.3,0.9,0.4,2.1,0.9,2.9c0.6,1,0.2,1.6,1,0.5c0.9-1.2,1.2-4.2,1.6-5.7c0.6-2.2,1.2-4.3,1.8-6.5
			C324.1,385.2,322.4,387.7,320,388.6L320,388.6z M261.3,282.2c-3.4,2.5-6.9,5-9.9,8.2c2.6-0.2,6.3,1.8,8.8,0.9
			c1.1,0.3,1.5-0.2,1.1-1.4v-2.5V282.2z M312.2,300.1v14.7c3.2-2.9,6.6-5.7,9.7-8.7C318.6,304,315.4,302.1,312.2,300.1L312.2,300.1z
			 M426.8,338.2c-1,6.6-1.1,13.3-1.3,19.9c0,1.2-0.5,3,0.3,4c0.7,1,2.8,1.6,3.9,2.2c3,1.6,5.9,3.2,8.9,4.7
			C434.6,358.8,430.7,348.5,426.8,338.2L426.8,338.2z M502.6,297.9c7.4-3.9,14.7-7.8,22.1-11.7c-7.2-3.3-14.4-6.6-21.7-9.9
			C502.9,283.6,502.7,290.7,502.6,297.9L502.6,297.9z M426.8,316.2c1.3,0.1,1.6-5.4,1.8-6.9c0.4-2.8,0.9-5.5,1.3-8.3
			c0.9-5.5,1.8-11,2.8-16.5c2-11,4.1-22,6.6-32.9c-2.6-0.5-5-0.9-7.5-1.7c-2-0.7-4.5-0.3-6.3-1.7c-0.2,5.1,0.9,10.5,1.4,15.6
			c0.5,5.9,0.8,11.8,0.7,17.7C427.5,293.2,427.1,304.7,426.8,316.2L426.8,316.2z M257.3,472.1c1.3-0.4-0.5-19.2-0.5-21.9
			c-0.2-7.8-0.3-15.7-0.1-23.6c-6.9,4.6-13.9,8.9-21.2,12.7c1.9,2.6,3.6,5.4,5.7,7.8c2.1,2.5,4.6,4.5,6.5,7.2
			C251.7,459.8,254.4,466,257.3,472.1L257.3,472.1z M422.7,360.9c0.3-5.7,0.6-11.3,1.1-16.9c0.2-2.4,2.4-15.1-1.1-14.8
			c-2,0.2-5.4,3.3-7.2,4.3c-2.4,1.4-4.8,2.9-7.2,4.3c-4.7,2.8-9.5,5.5-14.2,8.2C403.8,350.9,413.3,355.9,422.7,360.9L422.7,360.9z
			 M402.2,243.3c-3.9-0.3-7.7-0.6-11.6-1.4c-2.1-0.4-4.2-0.4-6.3-0.7c-1.5-0.2-4.5-1.5-5.9-1.1c-1.8,0.5-2.4,10-2.6,12.4
			c-0.4,3.8-0.7,8.5,0.9,12.1c3.1,7,11.4,1.5,15.4-1.4c3.5-2.5,7.4-5,10.4-8.1C405.3,252.5,402.9,246.8,402.2,243.3L402.2,243.3z
			 M422.6,318.9c3-1.3,2.9-2.9,3-6.2c0.2-4,0.2-8.1,0.4-12.2c0.2-7.2,0.4-14.4,0.3-21.7c-0.1-7.1-0.4-14.1-1.1-21.1
			c-0.3-2.5,0-6.7-1.2-8.8c-1.1-1.9-4.6-1.9-6.4-1.8c-2.1,0.1-3.8,2.3-5.4,3.7c-1.7,1.5-5.3,3.6-5.6,5.9c-0.3,2.5,1,6.1,1.5,8.6
			c1.8,8.9,4.1,17.8,6.4,26.6C416.9,300.9,419.4,310.1,422.6,318.9L422.6,318.9z M347.3,297.6c0.2-2,0.9-3.7-0.1-5.6
			c-0.8-1.6-2.1-3.3-3.1-4.8c-2.8-4.5-6-8.7-9.1-13c-2.8-3.9-5.7-7.8-8.7-11.5c-1.6-2.1-3.3-4.2-5-6.2c-1.2-1.5-2.4-3.6-4.2-4.4
			c-1.3,8.7-2.4,17.4-3.2,26.2c-0.4,4.2-0.7,8.5-1,12.7c-0.1,1.2-0.9,5.2-0.4,6.4c0.6,1.2,4.1,2.7,5.2,3.5c3,2,5.4,5,8.3,1.7
			c2-2.3,3.6-5.5,5.8-7.5c1.2-1,2.3-1,3.6-1.6c1.5-0.7,1.6-1.4,3.4-0.4C341.9,294.5,343.8,296.9,347.3,297.6L347.3,297.6z
			 M195,342.3c0,6-0.4,11,3.4,15.8c3.3,4.3,6.8,5.2,11.4,6.9c2.7,1,2.9,0.1,5.2-1.6c2.1-1.6,4.4-2.9,6.5-4.5
			c4.5-3.5,9-7.2,13.4-10.9c1.5-1.2,1.3-0.8,1-2.3c-0.2-1.4-1.1-3.1-1.6-4.4c-0.9-2.3-2-4.6-3-6.9c-1.2-2.6-2.3-5.4-3.8-7.8
			c-0.6-1-1.4-1.9-2.1-2.8c-1.5-1.9-1.5-1.8-3.3-0.3c-3.9,3.3-7.4,6.9-11.8,9.4C205.2,336.1,200.1,339.2,195,342.3L195,342.3z
			 M311.1,295.7c0.6-8.6,1.2-17.2,2.1-25.8c0.5-4.4,1.1-8.8,1.6-13.2c0.2-1.8,1.1-4.8,0.6-6.5c-0.5-1.7-2.6-3.3-3.8-4.6
			c-0.3-0.3-1.3-1.7-1.7-1.8c-0.4-0.1-2.1,1.2-2.6,1.5c-1.7,1.1-3.4,2.2-5,3.3c-3.1,2.2-6.1,4.5-9.1,6.9
			c-6.2,5.1-12.1,10.5-18.1,15.7c5.5,5.2,12.4,9.3,18.6,13.5c3.7,2.5,7.3,5,11.1,7.4C306.8,293.2,309,295.1,311.1,295.7L311.1,295.7
			z M235.4,450.1c-4.5,3.2-8.7,6.5-13.8,8.6c-5,2-10,2.8-15.2,4c-2.6,0.6-5.1,1.3-7.8,1.7c-1.5,0.2-3.8,0.1-5.2,0.8
			c-1.2-0.3-1.7,0.2-1.3,1.3c0,0.4,0,0.7,0,1.1c0.3,5.1,3.4,11.2,6,15.3c1.5,2.4,3.5,4.6,5.5,6.7c2.2,2.3,3.5,3.9,6.6,2.9
			c5.2-1.6,9.8-4.9,15-6.3c4.2-1.1,7.6-3.5,11.7-4.7c5-1.5,10-3.2,15-4.5c-2.3-4.7-4.3-9.6-7.2-13.9
			C241.7,458.7,238.4,454.5,235.4,450.1L235.4,450.1z M262.8,292c9.4,2,19.5,3.9,27.9,9c3.3,2,7.4,5.2,8.4,9.3
			c1.1,5-3.4,8.1-7.1,9.7c-4.5,1.9-9.4,2.6-14.2,3.2c-2.5,0.3-5.1,0.5-7.6,0.6c-2.1,0.1-5.5-0.4-7.4,0.5c-1.2-0.3-1.6,0.3-1.2,1.5
			c0,0.5,0,0.9-0.1,1.4l-0.2,4.1c-0.1,2.7-0.3,5.5-0.4,8.2c-0.3,6-0.6,12-0.8,18c4.9-3.3,8.9-7.9,13.6-11.4c2.3-1.7,4.5-3.3,6.8-5
			c1-0.7,1.5-1.7,2.5-2.3c1.2-0.9,2.3-1.4,3.5-2.5c4.8-4.6,10-8.5,15.1-12.7c2.3-1.9,4.8-3.7,7-5.7c2.3-2.1,2-3.9,1.9-7
			c-0.1-3.3,1.1-7.3,0.5-10.5c0.4-1.1,0.1-1.7-1-2c-0.7-0.5-1.5-1-2.2-1.5c-1.5-1-2.9-2-4.4-3c-5.8-4-11.7-8-17.5-12
			c-2.9-2-5.8-4-8.7-6c-0.8-0.6-3.5-3.1-4.4-3c-0.9,0.1-2.5,2-3.2,2.6c-1.1,1-2.1,2-3.3,2.8c-0.6,0.4-1.2,0.8-1.8,1.1
			c-1,0.1-1.3,0.7-1,1.8C262.5,284.5,263,288.9,262.8,292L262.8,292z M392.6,434.9c-2.1-10.6-4.9-23.2-13.1-30.5
			c-8.4-7.3-20.6-4.5-27.2,4.1c-3.3,4.3-5.3,9.4-6.8,14.7c-1.6,5.4-3.8,12.5-3.4,18.3c0.2,2.5,2.2,5.2,3.3,7.4
			c1.2,2.3,2,5.5,4.8,4.7c4.3-1.2,8.7-4,12.8-6c4.1-2,8.4-3.7,12.7-5.7c2.8-1.3,5.7-2.3,8.6-3.6
			C386.8,437.2,390.3,436.9,392.6,434.9L392.6,434.9z M517.8,371.5c5.9,2.3,9-1.4,13.1-5.5c3.9-3.9,8.2-7.6,11.8-11.8
			c3.7-4.3,6.7-9.5,9.6-14.5c2.9-5.1,6.8-10.6,8.6-16.2c0.9-2.9,1.3-6.1,1.9-9c0.1-0.7,1.1-3.4,0.8-4c-0.4-0.8-3-0.9-3.7-1
			c-5.6-1-11.6-1-17.3-0.1c-10.9,1.7-20.1,8.3-23.6,19.8C515,342.6,517,357.6,517.8,371.5L517.8,371.5z M479.5,254.3
			c-0.1,2.3,5.1,3,6.5,3.5c3.1,1.3,6.2,2.6,9.3,4.1c6.3,3.1,12.9,5.1,18.9,8.8c12.9,8,26.9,13.6,40,21.3c2,1.2,6,4.1,8.3,3.8
			c1.2-0.1,0.3,0.9,1.1-1.2c0.3-0.8,0.4-1.7,0.5-2.6c0.5-2.4,0.9-4.9,1.4-7.3c0.9-4,1.8-7.7,2.2-11.8c0.2-1.7,0.3-3.5,0.4-5.2
			c0-1.8,0.4-6.2-0.3-7.7c-0.5-1-0.6-0.7-1.8-1c-0.7-0.2-1.4-0.5-2.1-0.7c-1.6-0.5-3.2-1-4.9-1.2c-1.7-0.2-2.7-0.7-4.3-1
			c-1.6-0.3-3.3,0.1-5-0.4c-1.8-0.5-2.6-1-4.5-0.8c-1.8,0.2-2.3-0.2-4.1-0.8c-1.5-0.4-3.2-0.1-4.8-0.3c-1.9-0.2-3.7-0.4-5.6-0.6
			c-8.4-0.7-16.9,0.3-25.4,0.3c-4.6,0-9.1,0.7-13.7,0.5C487.6,253.9,483.4,253.9,479.5,254.3L479.5,254.3z M501.4,301.9
			c-4.1,1.7-7.9,4.4-11.7,6.7c-4.4,2.7-8.6,5.6-12.6,8.8c-6.8,5.4-14.8,12-16.5,21.5c-1.8,9.8,6,17.8,13.4,21.7
			c8.4,4.6,18.2,6.9,27.5,8.6C500.4,346.9,500.7,324.4,501.4,301.9L501.4,301.9z M378.9,354.8c-2.5,0.7-4.6,2.3-6.9,3.5
			c-2.1,1-4.1,1.8-6,3.2c-3.1,2.2-6.8,4.1-10.1,5.8c-8.1,4.2-16,9.4-24.1,14.1c-2.1,1.2-2.8,2-3.6,4.6c-0.8,2.8-1.5,5.5-2.3,8.3
			c-0.7,2.6-1.8,5.3-1.5,8.1c0.3,2.4,1.4,4.6,2.3,6.8c2.2,5.4,4.5,10.8,6.9,16.1c2.2,4.8,4.2,9.8,7,14.2
			c2.2-12.2,4.1-25.8,12.5-35.1c8.4-9.3,21.8-9.4,30,0.2c3.9,4.5,6.2,10.3,8,16c1,3,1.6,6.1,2.2,9.2c0.7,3.3,0.5,5.1,3.9,4.1
			c2.7-0.8,5.6-1.4,8.3-2.4c1.4-0.5,2.7-1,2.8-2.2c0.1-1.5-1.8-4.5-2.3-5.9c-2.8-7.2-5.7-14.4-8.5-21.6c-3.1-7.8-6.2-15.6-9.2-23.5
			c-1.5-3.9-3.1-7.8-4.6-11.7C382.4,363,381.2,357.7,378.9,354.8L378.9,354.8z M501.6,294c0-3.6,0.1-7.1,0.1-10.7
			c0-2.1,0.9-6.2-0.8-7.7c-1.1-0.9-4.2-1.7-5.6-2.3c-2.7-1.3-5.5-1.8-8.2-3.1c-10.5-4.9-21.4-9-32.1-13c-2.3-0.9-4.7-1.6-7-2.4
			c-1.3-0.5-5.9-3.1-7.1-2.4c-1,0.6-1.8,7.9-2.1,9.4c-0.8,3.6-1.5,7.2-2.2,10.8c-2.8,14-5.1,28-7.2,42.1c5.7-2.3,11.2-6.4,16.6-9.5
			c5.6-3.3,11.2-6.5,16.9-9.7c1.6-0.9,7.2-5,8.5-3.4c2.1,2.6-2.9,5.6-4.2,6.8c-5.1,4.3-10.5,8.1-16,11.8
			c-5.7,3.9-11.6,7.3-17.2,11.2c-2.1,1.4-5.3,3.1-6.1,5.4c-1,3-0.3,6.6,0.7,9.5c2.3,7,4.9,14,7.6,20.9c1.2,3.1,2.5,6.2,3.8,9.3
			c1.5,3.7,3.5,4.5,6.8,6.2c14.1,7.2,28.8,14.1,42.4,22.5c-2.3,2.8-7.8-1.8-10-3c-4.1-2.2-8.3-4.3-12.5-6.5
			c-7.7-4-15.4-8.2-23.2-12.1c5,12.2,10.9,23.9,17.4,35.2c-1.6,0.6-1.2,0.6-2.3-0.4c-0.9-0.9-1.5-2.6-2-3.8c-1.2-2.3-2.4-4.7-3.6-7
			c-2.5-4.8-5.2-9.5-7.5-14.5c-1.7-3.7-3.1-10.2-6.7-12.1c-4.5-2.3-9-4.6-13.5-7c0,18.5,1.2,36.6,3.1,55c0.1,0.9,0.9,3.7-0.7,3.4
			c-0.8-0.1-1-5.2-1.1-6.3c-0.6-4.9-1.1-9.7-1.5-14.6c-0.8-9.7-1.3-19.5-1.4-29.3c-1.1,9.5-2.1,19-3.2,28.5l-1.5,13.5
			c-0.3,2.4-0.5,4.7-0.8,7.1c-0.1,1.1,0,2.5-0.4,3.5c-0.6,1.6-0.4,1.5-2.1,2.3c1.7-12.4,3.2-24.8,4.6-37.2
			c0.7-6.1,1.3-12.1,1.9-18.2c0.2-1.6,0.3-3.3,0.5-4.9c0.1-0.8,0.7-3.5,0.4-4.2c-0.4-0.7-2.8-1.4-3.5-1.8c-1.5-0.8-3.1-1.5-4.6-2.3
			c-5-2.5-10-5-14.9-7.6c-2.2-1.1-4.4-2.9-6.8-3.5c-2.3-0.6-4,1.1-6,2.2c-1.6,0.9-5.2,2-6.2,3.5c-1,1.4,2,6.8,2.8,8.8
			c2.2,5.7,4.4,11.4,6.7,17c4.5,11.5,9,23,13.5,34.5c1.1,2.8,2.2,5.6,3.3,8.4c0.7,1.8,1.9,6.9,3.6,7.1c0.8,0.1,2-0.8,2.7-1.1
			c1.1-0.4,2.1-0.4,3.2-0.6c2-0.4,4.1-1.5,6.1-2.3c5.1-2,10.3-3.3,15.4-5.2c5.1-1.9,10.2-4,15.3-5.9c4.6-1.7,9.3-3.7,13.8-5.9
			c4.7-2.4,9.5-4.4,14.1-7c8.4-4.8,16.6-9.2,24-15c1.7-1.4,3.6-2.7,5.3-4.2c1.5-1.3,4.4-2.9,5.4-4.6c0.4-0.6,0.7-1.9,0.3-2.7
			c-0.5-0.8-2.7-0.7-3.7-0.9c-3.2-0.5-6.4-0.9-9.6-1.4c0.2,2.3,0.5,4.5,0.7,6.8c0.1,1.6,1,5.8-0.2,7.1c-1.6-1.7-1.1-6.7-1.3-8.9
			c-0.1-1.2,0.2-3.5-0.3-4.6c-0.5-1.2-2-1.1-3.4-1.5c-5.8-1.3-11.5-2.5-17-4.6c-9.4-3.6-20.7-9.6-22.8-21.3
			c-2.2-12.2,7.4-22.7,15.5-29.5c4.9-4.1,10-7.6,15.4-10.8c2.5-1.5,5-3.1,7.5-4.5c0.9-0.5,3.9-1.7,4.4-2.6
			C501.7,297.7,501.5,295.1,501.6,294L501.6,294z M300.3,480.8c-0.5,0.2-0.9,0.5-1.4,0.7c5.1-15.6,10.1-31,14.4-46.9
			c2-7.6,4.1-15.3,6.2-22.9c0.9-3.3,3.2-7.8,2.5-11.2c-0.7-3.7-2.3-7.6-3.5-11.1c-8,5.4-16.2,10.6-24.4,15.7
			c-7.3,4.6-14.8,8.8-22.1,13.4c-3.8,2.4-7.7,3.9-11.6,5.9c-3.2,1.6-2,6.3-1.9,9.5c0.2,11.3,0.2,22.6,0.8,33.8
			c0.2,4.1-0.1,8.8,2.4,12.2c3.1,4.4,6,8.8,8.8,13.4c1.1,1.7,5.5,11,7.2,10.8c1.1-0.1,2.1-3.9,2.6-4.8c1.2-1.9,2.9-3.6,4.4-5.1
			c6.7-6.7,14.2-11.4,21.9-16.3c7.9-5,15.9-9.6,24-14.3c1.8-1.1,3.8-1.8,5.6-2.9c0.7-0.4,2.1-1.1,2.6-1.9c0.7-1.2,0.4-4.3,0.6-5.7
			c0.3-2.8,0.8-5.7,0.8-8.6c0-2.8-1.5-5.2-2.7-7.6c-5-10.7-9.8-21.4-14.2-32.5c-3.4,12.8-7,25.6-10.4,38.4
			c-1.7,6.7-3.9,13.3-5.9,19.9c-1,3.4-2.1,6.7-3.1,10.1C303.1,475.3,302.6,479.2,300.3,480.8L300.3,480.8z M371.8,239.3
			c-2.6,0-5-0.4-7.6-1c-0.9-0.2-1.8-0.3-2.7-0.4c-1.1-0.1-2.1-0.7-3-0.9c-0.7-0.1-2,0.2-2.7,0.5c-1.6,0.6-1.5,0.3-1.6,2.3
			c-0.1,3.1-0.2,6.2-0.3,9.2c-0.6,12.1-1.8,24.1-3.5,36.1c-0.3,2.4-1.3,5.6-0.8,8c0.5,2.2,2.2,4.5,3.4,6.3c2.4,3.7,8,5.6,11.9,6.7
			c4.1,1.1,8.4,1.5,12.4,2.5c1.1,0.3,2.3-0.2,3.5,0.1c1.1,0.3,1.9,0.9,2.9,1.3c2.4,1.1,5.1,1.3,7.7,2.2c5,1.7,10.3,1.6,15.3,3.3
			c1.3,0.4,2.4,1.5,3.6,1.8c1.1,0.3,2.3-0.1,3.4,0.1c2.5,0.4,4.8,1.3,5.4,4.2c1.5-1.3,1.7-1,1.5-3c-0.2-1.3-0.8-2.8-1.2-4.1
			c-0.9-3.2-1.9-6.3-2.8-9.5c-1.8-6.2-3.7-12.5-5.3-18.8c-1.5-5.6-2.9-11.3-4.1-17c-0.6-2.9-1.1-5.8-1.6-8.7c-0.2-0.8,0-2.2-0.8-2.8
			c-0.7-0.5-2.4,1.3-3.2,1.9c-5.3,4.1-17.5,16.3-24.1,9.1c-3.6-3.9-3.4-10.7-3-15.7c0.2-3.1,0.7-6.1,1.3-9.1c0.1-0.8,1-3.2,0.7-3.7
			C376,239.8,372.5,239.5,371.8,239.3L371.8,239.3z M558,306.6c1.4,0.2,2.8,0.3,4.2,0.5c-0.1-1.2,0-3.1-0.4-4.2
			c-0.6-1.6-2.1-1.8-3.7-2.4c-2.5-1-5.1-1.9-7.6-3c-5.5-2.4-10.9-4.9-16.3-7.3c-2.4-1.1-5.2-2.8-7.8-1.9c-2.8,0.9-5.6,2.8-8.2,4.2
			c-3,1.6-5.9,3.2-8.9,4.7c-1.4,0.7-2.8,1.5-4.2,2.2c-2.2,1.2-2.5,1.3-2.6,3.9c-0.9,13.6-0.8,27.7-0.4,41.3c0.2,6.9,0,13.9,0.4,20.8
			c0,0.5,0,3.5,0.3,3.9c0.4,0.6,3.5,0.8,4.2,0.9c2.9,0.6,5.8,0.8,8.6,1c-0.7-15.8-3.2-34.5,4.4-48.9
			C527.6,308,543.8,304.9,558,306.6L558,306.6z M426.2,151.2c0.8-2.1,2.3-3.8,3.6-5.7c0.7-1,1.8-2.2,2.3-3.3
			c0.6-1.6,0.6-1.3-0.3-2.7c-0.9-1.4-0.9-1.5-2.2-1.7c-1.1-0.2-2.3,0.1-3.5-0.1c-1.2-0.2-4.4-1.3-3.7-3.3c0,0.1,1.8-0.9,2-1.1
			c0.5-0.5,0.6-1.7,0.8-2.4c0.7-2.1,1-3.5,0.2-5.8c-1.2-3.4-6.1-4.4-9.2-3.2c-1.5,0.6-2.4,1.8-3.1,3.3c-0.4,1-0.5,2.3-1.1,3.2
			c-0.8,1.3-0.9,1.1-2.7,0.9c-2.2-0.3-4.1-1.2-6.2-1.9c-2.3-0.7-3.8,0.7-5.8,1.9c-3.6,2.1-7.2,2.8-11.2,3.1
			c-4.5,0.4-8.8-0.8-13.3-1.1c1.2,5.8,4.2,10.5,6.6,15.7c0.4,0.9,1.1,1.9,1.1,2.9c0,1-1.3,2.4-1.2,3.2c0.3,1.8,4,3.2,5.3,3.7
			c3.9,1.4,8.3,4.2,12.6,3.1c2.3-0.6,3.6-4.6,5.8-4.9c3-0.4,0.7,3.7,0.2,5.1c4.2,0.7,9.5,0.1,13.5-1.4c2-0.8,3.7-1.9,5.6-3
			C424.7,154.3,425.2,154,426.2,151.2L426.2,151.2z M352.6,237.3c-7.5,0.1-15.1-1-22.6,0c-1.7,0.2-3.5,0.6-5.2,1.1
			c-1.2,0.3-5.1,0.6-5.9,1.5c-0.7,0.9-0.8,5-0.9,6.2c-0.3,2.6-0.3,3.5,1.3,5.5c5.1,6.6,10.3,13,15.3,19.6
			c4.8,6.4,8.7,13.5,13.5,19.8c2.6-8.1,2.7-17.8,3.4-26.2c0.4-4.5,0.7-9,1-13.5C352.9,247,354,241.4,352.6,237.3L352.6,237.3z
			 M255.7,322.3c0.9,0,2.2,0.3,3.1,0c1.2,0.4,1.5-0.1,1.2-1.4c0-0.5,0-0.9,0.1-1.4c0.1-3,0.3-6,0.4-9c0.1-2.7,0.2-5.5,0.3-8.2
			c0.1-1.9,0.9-6.5,0.2-8.2c-0.5-1.1-1.6-0.9-3-1c-1.3-0.2-2.6-0.3-3.9-0.5c-1.6-0.3-3.4-0.9-5.1-0.5c-1.7,0.4-2.9,2.1-4.2,3.1
			c-2.1,1.7-4.2,3.3-6.3,4.9c-3.8,3-7.6,6-11.4,9.1c-1.6,1.3-1.9,0.8-1.1,2.6c0.5,1.1,1.5,2.4,2.2,3.4c1.3,2,2.6,5,4.2,6.7
			c2.4,2.4,9.1,0.9,12.3,0.8C248.5,322.6,252,322.7,255.7,322.3L255.7,322.3z M265.2,322.1c3.2-0.3,6.4-0.2,9.5-0.6
			c3.4-0.5,6.8-1.2,10.3-1.8c3.4-0.6,13.8-2.8,12.8-8.3c-1.1-5.8-9-9.3-13.4-11.2c-6.9-3-14.1-4.7-21.3-6.4
			c-0.9,5.2-0.8,10.8-0.9,16c-0.1,2.9-0.2,5.7-0.2,8.6c0,0.7-0.2,2.1,0,2.8C262.6,322.7,263.3,322.1,265.2,322.1L265.2,322.1z
			 M254.7,324.6h-20.3c3,6.7,5.8,13.5,9.1,20c3.2,6.5,7.4,12.7,11,18.9c0.9-1.1,2.4-2.3,3-3.5c0.7-1.4,0.7-3.5,0.8-5.2
			c0.3-4.3,0.4-8.6,0.5-12.9c0.1-3.8,0.2-7.5,0.5-11.2c0.1-0.8,0.9-5.1,0.4-5.8C259.4,324.3,255.6,324.6,254.7,324.6L254.7,324.6z
			 M338.3,193.5c3.4,0,6.8,0,10.3,0c3.1,0.1,7.2-0.5,10,1.2c5.8,3.5-5.8,12.5-8.1,14.7c3.8,1.5,9.7-1.5,13.4-2.8
			c4.6-1.7,9.3-2.8,14-4.1c1.2-0.3,6.2-1,6.8-1.9c0.6-1-0.8-6.7-0.9-7.9c-0.1-1.1,0-2.9-0.5-4c0.3-1.3-0.2-1.7-1.3-1.4
			c-0.4,0-0.8,0-1.2,0c-2.9,0-5.7,0.2-8.6,0.3c-9.8,0.4-19.4,0.8-29.1,2.5c-4.5,0.8-9.1,1.7-13.6,2.6c-3.8,0.8-3.1,1.5,0.4,1.5
			C332.8,194.2,335.5,193.7,338.3,193.5L338.3,193.5z M619.4,116.1c0.6-0.7,1.2-1.4,1.7-2.2c-1.4-0.4-2.8-0.9-4.3-1.3
			c-1.5-0.5-2.3-0.4-1.6-2.2c0.8-2.3,4.7-2.5,6.5-2.6c6.4-0.3,13,1.9,19.1,3.8c2.9,0.9,5.3,2.4,7.7,4.3c1.1,0.8,2.3,1.6,3.3,2.6
			c1,1,1.4,2.4,2.4,3.4c1.6,1.7,3.6,2.6,4.4,5.1c0.9,2.9-0.2,6.1-1.5,8.6c-1.3,2.5-3.3,4.4-4.9,6.7c-1.3,1.8-4,6.8,0.2,6.2
			c2.2-0.3,5.1-4.4,6.7-6c2.3-2.3,4.5-4.7,6.9-6.8c2.1-1.9,4.6-3.9,7.5-4.2c3-0.4,4.5,1.7,6,4.3c1.4,2.4,1.6,4.7,2.6,7.2
			c0.5,1.2,1.1,1.8,1.3,3.1c0.4,2,0.5,4.1,0.7,6.1c0.3,3.2,0.7,5.6,0.1,8.7c-0.5,2.9-0.7,6-1.1,8.9c-0.5,3.3-0.9,6.7-1.4,10
			c-0.4,2.8-2,6.9-0.5,9.5c3.8,6.3,8.4-3,9.6-6.5c2.1-6.1,3.2-12.8,5.1-19c1-3.3,1.9-6.7,2.4-10.2c0.5-2.9,0.2-6.3,1.7-8.9
			c1.1-2,3.1-3.5,5.4-2.9c2.8,0.8,3.8,5,4.6,7.7c2.1,6.9,1.4,13.1,0.5,20.1c-0.4,3.3-0.8,6.5-1.5,9.7c-0.5,2.2-2.4,6.5,0.5,7.7
			c4.1,1.7,8.4-11,9.6-13.8c3.1-7.5,4.2-14.9,5.5-22.9c0.3-1.8,0.5-3.7,0.9-5.5c0.4-1.6,1.5-3.2,1.6-4.7c0.1-1.6-0.9-2.7,0.1-4.2
			c0.8-1.3,2.3-1.4,3.7-1.4c3.2,0,6.2,1.5,9.2,2.6c2.7,1,6.8,3.2,9.8,2.5c-9.3-10.1-18.6-20.2-29.6-28c-5.1-3.7-10.3-7.2-15.9-10.2
			c-5.6-3-12.1-5.1-18.1-6.9c-3.3-1-6.5-2.1-9.8-3.3c-2.9-1-5.8-1.2-8.6-2.4c-6.1-2.5-13-3.5-19.3-5.3c-2.8-0.8-5.6-1.5-8.5-2.2
			c-3-0.8-7.1-2.1-10.1-2c-2.6,0.1-3.4,3.3-4.7,5.5c-1.8,3.2-3.3,6.5-4.7,9.9c-2.9,7-5.9,14.2-8,21.5c-1.1,4-2.3,8-3.4,12
			c-1,3.5-3.4,8.5-2.7,12.1C611.1,132.7,615.5,124.5,619.4,116.1L619.4,116.1z M397.9,187.2c-2.5,0.1-5,0.2-7.6,0.4
			c2.5,8.9,2.2,18.4,2.2,27.6c11.8-1.5,23.6-1.7,35.4-1.6c-2.2-4.5-1.3-10.4-0.7-15.2c0.4-2.8,0.6-5.5,0.5-8.4c0-2.7,0.7-4.9-2-5.7
			c-2.1-0.7-3.4,0.4-5.4,0.9c-2.4,0.6-5,0.7-7.4,1C407.9,186.8,403,187.2,397.9,187.2L397.9,187.2z M330.1,204.5
			c7.6-2.3,15.6-1.4,23.3-3.1c-1.7-1.7-5-0.7-7.3-0.6c-2.6,0.2-5.2,0.3-7.8,0.4c-2.6,0.1-9.6-0.1-10.5,3.4
			C328.5,204.6,329.3,204.6,330.1,204.5L330.1,204.5z M607.5,78.6c-9.9,0.9-20.3,0.8-30.2,2.6c-11.3,2.1-23,3.5-34,7.2
			c-10.7,3.7-21.7,6.3-32.2,10.6c-10.3,4.2-20.2,8.7-29.9,14.3c-4.7,2.8-9.3,5.7-13.9,8.8c-4.4,3.1-9.2,5.6-13.5,8.9
			c-3.8,2.9-7.1,5.6-10.4,9.1c-3.5,3.8-7,7.7-10.5,11.5c-3,3.2-1.1,10.9-0.9,15.2c0.3,5.9,0.7,11.6,1.4,17.5
			c0.6,5.5,1.3,11.5,0.5,17c-0.4,2.3-1.6,6.3-1,8.7c0.5,1.9,3.6,3.2,5.1,3.8c1.9,0.7,3.9,0.4,5.9,1.4c2.2,1.1,4.1,2.4,6.4,2.9
			c2.9,0.7,6.1,1.3,9.1,1.3c2.7,0,5.5,1,8.2,1.6c4.5,1,8.8,1.3,8.5,7c-0.3,6.7-2.8,12.4-4.2,18.7c2,0,3.4,0.1,5.2-0.6
			c2.1-0.9,4.4-1.1,6.6-1.5c4.9-0.8,9.7-1.1,14.7-1.6c9.1-1,18.3-0.9,27.4-0.8c4.6,0.1,9.6,0.4,14.1,1.2c4.6,0.8,9.5,1.3,14,2.8
			c3.8,1.3,7.7,2.1,11.6,3.3c1.7,0.5,3.8,0.9,5.5,1.5c2.4,0.8,3.7,2.6,6.4,2.5c-0.8-5.5-2.6-10.6-3.7-16c-1.1-5.7-3.4-10.7-6-16.1
			c-1.1-2.4-2-4.9-3.1-7.4c-1.2-2.7-2.9-4.9-4.4-7.4c-3-5.1-6.2-10.1-9.1-15.3c-2.6-4.5-5.5-8.9-8.3-13.2
			c-3.1-4.8-7.4-8.4-10.9-12.8c-1.5-1.9-2.9-3.6-4.5-5.3c-1.5-1.6-3.7-5-6-5.2c-1.3-0.1-3.7,0.7-4.9,1.2c-2.4,0.8-4.9,1.3-7.3,2
			c-2.7,0.8-5.3,1.8-8,2.5c-1.1,0.3-2.3,0.2-3.4,0.5c-1.1,0.4-1.9,1.1-3.1,1.5c-5.7,1.8-11.5,3.7-17.2,5.3c-6,1.6-12,3-17.8,5.4
			c-1.1,0.4-2.3,1.5-3.2,0.8c-0.6-0.5-1-2-0.9-2.8c0.6-2.8,4.8-3.8,6.8-5c5.4-3,10.8-5.2,16.6-7.2c2.9-1,5.7-2.1,8.6-3
			c2.4-0.7,5-2,7.5-2.3c2.2-0.3,3.8-1.3,6-2.1c3.2-1.2,6.6-2.2,9.9-3.3c5.6-1.8,11.6-2.5,17.3-3.7c13.3-2.8,27.2-4.2,40.7-4
			c6.9,0.1,14-0.1,20.8,1.1c1.6,0.3,5.1,0.2,6.2,1.8c0.6,0.8,0.3,2.1,0.4,3c0.3,1.5,1,2.3,1.7,3.7c1.4-7.6,3.1-15.1,5-22.6
			c1.7-6.8,3.3-13.7,5.5-20.4c2.4-7.1,5.3-14.6,8.8-21.1c0.7-1.3,2.6-3.5,2.7-5c0.2-1.5-1.8-2.7-3.2-2.9
			C613.8,77.8,610.5,78.5,607.5,78.6L607.5,78.6z M674.1,187.5c1-10.6,4-21.6,2.3-32.3c-0.7-4.5-1.2-8.8-3.3-12.8
			c-1.1-2.1-1.5-3.6-3.5-2.3c-2,1.2-3.9,4.2-5.6,6c-3.1,3.2-6.4,6.5-10.1,8.9c-2.9,1.9-8.8,3.7-11-0.4c-2.1-3.9,0.7-9.3,2.7-12.5
			c2.3-3.7,6.7-7.1,4.2-11.6c-1.1-1.9-2.6-2.5-4.2-3.7c-1.4-1.1-2.5-2.5-3.9-3.7c-4-3.3-8.4-4.7-13-6.5c-2.1-0.9-2.4-1.7-3.6,0.3
			c-1.3,2.1-2.1,5.1-3,7.5c-1.9,4.7-4,9.2-6.5,13.6c-2.5,4.5-4.8,9.1-7.1,13.7c-0.9,1.7-1.7,3.5-2.8,5.1c-0.6,0.9-1.3,1.7-1.8,2.6
			c-0.7,1.4-0.4,2.7-0.8,4.1c-1.9,6.1-4.6-2.4-5.1-4.4c-0.6-2.3-2-4-2.9-6.1c-0.8-1.7-1.3-4.3-3.1-5.2c-1.5-0.7-3.5,0.3-5,0.3
			c-2.8,0.2-5.7-0.1-8.5,0.1c-2.7,0.2-5.3,0.5-8,0.6c-2.7,0.2-5.3-0.3-8,0c-4.7,0.5-9.5,0.5-14.3,1.2c-5.5,0.9-11,1.8-16.5,2.5
			c1.3,2.6,4,3.8,6.1,5.6c1.9,1.7,3.4,3.6,5.3,5.2c1.9,1.6,3.1,4,4.7,5.9c1.6,1.9,3,3.5,4.4,5.6c6.6,10.3,13.4,20.1,18.9,31.2
			c2.8,5.6,5.4,11.6,7.3,17.6c2,6.5,3,13.4,4.2,20c0.6,3.3,0.9,6.1,0.3,9.5c-0.2,0.8-0.4,1.6-0.5,2.4c-0.6,0.9-0.4,1.6,0.6,1.8
			c0.6,0.9,1.4,1.3,1.4,2.5c0,1-0.5,2.1-1.2,2.6c-1.5,1-1.5-0.4-3-0.1c-0.6,0.3-1.1,0.7-1.7,1c-0.3-0.5-0.6-1-0.9-1.5
			c-1-1-1.7-0.9-3-1.1c0.6,8-0.4,15.1-2,22.9c-0.8,3.7-2.1,7.4-2.8,11.1c-0.8,4.2,0.9,6.1,3.5,8.9c-0.6,0.4-1.8,0.8-2.3,1.3
			c-0.9,0.9-0.6,1-0.6,2.3c0,2.5-0.4,4.9-0.8,7.4c-0.7,4.5-1.3,9.2-2.7,13.6c-2.6,7.9-6.9,16.1-11.2,23c-2.4,3.9-4.9,8.3-7.9,11.7
			c-3.1,3.4-6.1,6.8-9.1,10.1c-6,6.6-12.6,11.2-19.8,16.2c-2.8,2-5.8,4.1-8.3,6.6c-2.5,2.5-5.8,4.2-8.8,6c-1.3,0.8-2.3,2-3.7,2.6
			c-1.3,0.6-2.3,0.8-3.4,1.6c-2.8,2-5.8,3.8-8.9,5.3c-3.8,1.9-7.5,4-11.3,5.6c-1.8,0.7-3.4,1.5-5.1,2.4c-1.8,0.9-3.8,1.5-5.7,2.5
			c-1.6,0.8-3.2,1.3-4.8,2c-1.3,0.6-2.4,1.4-3.7,2c-2.8,1.2-5.4,1.8-8.1,3.2c-3.6,1.9-7.9,2.7-11.8,4.1c-4.3,1.5-8.7,3-13.1,4.1
			c-1.9,0.5-3.5,1-5.3,1.7c-1.2,0.4-2.5,0.7-3.8,1.1c-3.6,1.2-7.2,2.3-10.8,3.3c-7.1,2-14.3,4.3-21.1,7c-3.6,1.4-7.2,3.1-10.7,4.8
			c-3.9,2-8.1,3.2-12,5.1c-7.6,3.8-15.1,7.8-22.5,11.8c-3.9,2.1-7.8,4.3-11.6,6.6c-1.4,0.8-2.9,1.2-4.3,2c-1.8,1.1-3.3,2.6-5.1,3.7
			c-7.1,4.1-14.4,7.9-20.9,13.1c-3.4,2.7-7.1,5.5-10.1,8.8c-1,1.1-2.7,2.8-2.8,4.3c-0.3,2.3,0,0.2,0.7,1.6c1,0.1,1.3,0.6,0.7,1.3
			c-0.3,0.3-0.6,0.5-1,0.5c-1.3,0.3-3.8-1.2-4.8-1.8c-1.8-1.1-2.8-2.5-4-4.3c-2.6-4-5-7.9-7.7-11.8c-2.4-3.5-4.7-7.4-7.4-10.6
			c-1.8-2.2-2-1.2-4,0c-1.5,0.9-3.3,1.3-4.8,2.2c-6,3.3-12.5,5.7-18.6,8c-1.4,0.5-2.1,1.3-3.4,2.1c-1.6,0.9-3.5,1.4-5.2,2
			c-4.6,1.8-9.2,3.7-13.7,5.6c-3.5,1.5-6.9,2.6-9.7,5.3c-1.1,1.1-2.4,1.8-3.6,2.9c-1.3,1.3-3.1,3.3-4.8,4l-1,0.8
			c-0.7-0.5-1.4-1-2.1-1.5c-0.7-0.5-1.4-1-2-1.5c-1.7-1.3-3.4-2.6-5.1-3.9c-3.8-2.9-7.7-5.8-11.3-9.1c-6.4-5.9-13-11.4-19.6-16.9
			c-7-5.8-13.8-11.8-21-17.2c-6.5-4.9-13.7-9.1-20-14.3c-3.2-2.6-6.4-5.2-9.6-7.8c-0.2-0.1-2.8-1.9-2.9-2.1c0-0.4,0.8-1.3,1.1-1.6
			c1.2-1.4,2.6-2.7,3.8-4.1c5.7-6.7,13.1-6.5,20.9-6.8c3.5-0.1,7.4,1.6,10.8,2.8c4.1,1.5,8.1,3.6,12.1,5.5
			c8.2,3.8,16.7,7.1,24.9,10.6c3.3,1.4,6.5,2.1,9.8,3c3.4,1,6.8,0,10.4,0.1c1.9,0,3.6,0.2,5.5,0c1.1-0.1,2.4-0.3,3.5-0.3
			c0.9,0,1.8,0.4,2.6,0.3c3.6-0.4,7.4-1.1,11.1-1.6c3.7-0.5,7.5-0.7,11.1-1.5c1.8-0.4,3.6-0.9,5.4-1.6c1.5-0.6,4.3-1.2,5.6-2.4
			c1.1-1,0.6-1.1,0-2.8c-0.2-0.7-0.5-1.7-0.9-2.4c-1-1.8-1.9-2.3-1.4-4.5c1-3.9,4.5-6.4,7.4-8.3c6.7-4.3,12.8-9.8,19.8-13.5
			c14.5-7.5,27.7-17.3,41.8-25.6c15.5-9.1,30.2-19.7,46-28.4c14.7-8.1,29.2-16.2,44-24.1c7.2-3.8,15.4-7.3,21.9-12.3
			c-3.6-0.5-7.3-1.1-10.9-1.5c-1.7-0.2-3.4,0-5.1-0.3c-1.9-0.3-3.7-1.1-5.5-1.5c-3.2-0.6-6.1-1.8-9.3-2.2c-3.5-0.5-6.8-1.6-10.3-1.9
			c-7.3-0.6-13.8-3.5-20.2-7.1c-1.6-0.9-2.9-0.4-4.4-1c-0.8-0.3-1.7-1.7-2.7-2.4c-2.6-2-4.8-4.3-7.2-6.5
			c-5.1,12.4-15.2,20.8-24.9,29.2c-4.9,4.2-10.2,7.8-15.1,11.9c-3.8,3.2-7.3,6.1-11.4,8.6c-3.9,2.4-7.6,5.8-11.3,8.7
			c-2.5,2-5.5,3.5-8.2,5.2c-2.2,1.4-6.5,3.5-7.1,6.1c-0.5,2.1,0.5,4.6-2.5,3.6c-2.7-0.9-4.6-4-6.1-6.3c-4-5.8-7.8-11.8-11.5-17.8
			c-2,4.2-5.5,7.2-8.6,10.3c-1.9,1.9-3.9,3.6-6,5.3c-1,0.8-2,1.6-3.1,2.4c-0.4,0.3-1.3,0.8-1.6,1.3c-0.6,1.1-0.2,0.6-0.1,1.9
			c0.1,2,0.8,3.6-0.3,5.5c-1,1.8-3.2,2.6-4.7,3.8c-3.6,2.9-7.4,6.1-11.4,8.4c-0.9,0.5-1.8,1-2.6,1.6c-1.4,1.1-1.2,1.5-2.6,0.4
			c-2.2-1.6-4.2-4.2-6.2-6.2c-4.2-4-8.5-8-12.8-11.9c-8.2-7.5-16.7-14.5-24.9-22.1c-7.7-7.2-16-13.4-24-20.3
			c-2.2-1.9-4.4-3.8-6.5-5.7c-1.9-1.7-5-3.6-6.5-5.8c-2.1-3.2,6-7.5,8.5-8.2c4.2-1.1,9.6-0.5,13.9,0.4c4.4,1,8.9,4.2,13.1,6.2
			c4.7,2.2,9.4,4.2,14.1,6.3c2.1,0.9,4.3,1.7,6.2,3c2.1,1.4,3.9,2.9,6.1,4c2.5,1.3,5.1,2.5,7.8,3.5c1.2,0.4,2.5,0.9,3.8,1.1
			c1.8,0.3,1.5-0.6,3-1.1c1.3-0.4,1.6,0.7,2.7,1c1.1,0.3,1.9,0,2.8-0.6c2.1-1.4,3.9-3.3,6-4.7c1.9-1.3,4-2.6,5.8-4.1
			c0.8-0.7,1.4-1.6,2.2-2.3c1.3-1.1,1.8-0.7,3.2-1.4c1.2-0.6,2.3-1.8,3.5-2.5c0.7-0.5,2.4-1.1,2.9-1.8c1.2-2-0.9-3.4-2.7-2.8
			c-0.3-1.7-1.7-5.8-1.1-7.5c0.5-1.4,2-1.2,3.2-1.9c4.5-2.9,7.8-8,12-11.4c4-3.2,7.5-6.9,11.4-10.2c3.4-2.8,7.1-5.5,10.1-8.4
			c3.6-3.5,8.3-6.3,12.2-9.4c4.1-3.2,7.9-6.9,11.9-10.1c3.9-3.2,7.7-6.5,11.7-9.5c3.6-2.7,7.3-5.2,10.8-7.9c1.9-1.5,4-2.8,6.2-3.8
			c2.2-1,4.1-2.1,6.2-3.2c4.2-2.1,9.7-3.5,14.3-4.1c5.1-0.7,10.1-1.3,15.3-1.3c2.7,0,5.4,0.6,8.1,0.7c2.5,0.2,5.2,0.8,7.6,0.7
			c1.1,0,2.1-0.5,3.2-0.4c0.9,0.1,1.7,0.7,2.7,0.8c2.2,0.2,4.3,0,6.5,0.3c5,0.7,10,1.7,15.1,2.2c5.4,0.6,10.7,0.7,16,1.7
			c5.2,1,10.4,2,15.6,3.1c11,2.4,22.1,4.7,32.9,8.2c2.5,0.8,5.1,1.6,7.5,2.7c1.2,0.5,2.3,1.2,3.5,1.6c1.8,0.6,2.1,0.8,3-0.8
			c1.6-2.7,2.4-6.4,3.6-9.3c1.1-2.9,2.5-5.9,3.1-9c-1.9-0.3-4.3,0.3-6.2,0.4c-2.4,0.1-4.7,0-7.1,0c-4.8,0-8.6-1.6-13.1-3.2
			c-3.8-1.3-8.9-2.1-11.9-5.2c-1.6-1.7-2.1-1.9-4.4-1.7c-2.4,0.3-4.7,0.8-7.1,0.9c-9,0.3-18,2-27.1,2.4c-2.5,0.1-8.6,1.3-8.2-3.1
			c0.1-0.9,0.7-1.7,0.9-2.7c0.1-1-0.1-2.1-0.2-3.1c-0.4-2.4-0.7-4.7-1.1-7.1c-8.3,2.9-16.7,5.2-25.1,7.4c-3.5,0.9-9.1,3.1-12.7,1.9
			c-3.5-1.1-1.5-6.4-0.4-9c-6.9,1.7-14.4,4.5-21.4,5.1c-2.2,0.2-4.3,0.7-4.8-2.1c-0.4-2.2,1.1-5,1.9-6.9c-5.4-0.5-11.1-0.5-10-8
			c0.9-6.9,6.2-8.2,11.9-9.5c7-1.5,14.1-2.1,21.1-3.3c6.1-1.1,12.8-2.3,19-1.8c3.3,0.3,6.6,0.4,9.9,0.7c1.6,0.2,3.1,0.4,4.6,0.9
			c1.4,0.4,3.3,1.7,4.8,1.7c2.2,0,4.7-3.1,7.1-3.8c2.9-0.9,6-1.1,8.9-1.3c3.4-0.2,6.7-0.4,10.1-0.7c0.8-0.1,3.7,0.1,4.3-0.3
			c0.9-0.7,0.3-4.3,0.2-5.8c-0.1-1.4,0.2-3.9-0.7-4.5c-0.8-0.5-3.2,0.2-4.1,0.3c-3.4,0.6-6.6,0.5-10,0.4c-1.6-0.1-3,0.4-4.6,0.2
			c-1.7-0.2-3.3-0.8-5-1.2c-3.6-0.7-6.8-1.6-9.9-3.8c-2.7-1.9-5.9-3.2-7.4-6.5c-1.1-2.4-1.6-7.1,1.7-7.8c-2.2-3.4-3.7-7.3-4.9-11.2
			c-0.2-0.7-0.4-1.8-0.7-2.4c-1.1-2.2-0.1-0.3-1.7-1.1c-1.6-0.9-2.7-1.6-4-3.1c-2-2.4-2.8-5.4-3-8.6c-0.3-4.3-1-9.1-0.4-13.4
			c1-7.4,6-13,11.1-17.4c2.8-2.4,6.4-3.3,9.7-4.8c3.1-1.4,6.6-2.9,10-3.2c3-0.3,5.9-1.3,8.9-1.8c4.1-0.6,8.2-0.4,12.4-0.5
			c1.9-0.1,3.8-0.4,5.7-0.6c1.1-0.1,2.9,0,3.9-0.4c1.6-0.7,0.7,0.8,1.3-1.5c1.1-4.3,2-8.4,3.6-12.6c1.5-3.9,3.4-7.7,5.9-11
			c2.3-3.2,5.3-5.5,8-8.1c2-2,4.3-3.8,6.6-5.4c1.3-0.9,2.8-1.4,4.1-2.2c1.6-1,3-1.8,4.8-2.4c3.9-1.3,7.7-2.7,11.8-2.7
			c4.4,0.1,8.8-1,13.1,0.4c8,2.6,11.9,11.9,11.8,20.4c2.7-0.7,5.1-2.1,8-2.3c2.7-0.1,5.8,0.1,8.4,0.7c5.1,1,10.3,4.1,13.3,8.7
			c2.9,4.4,3.3,10.2,1.5,15.2c-0.8,2.4-2.2,4.5-3.6,6.5c-1.1,1.5-3.4,3.1-3.5,5.1c19.6-6.4,39.4-10.9,59.7-13.8
			c10.3-1.5,20.6-0.7,30.9-1.6c4.4-0.4,9.2,0.1,13.7,0.2c1.9,0,3.4-0.3,4.8-1.6c1.4-1.4,2.5-3,4.2-1.1c0.4,0.5,0.5,1.7,1.1,2.1
			c0.7,0.5,2.7,0.1,3.5,0.2c2.9,0.2,5.7,0.7,8.5,1.3c5.2,1.1,10.3,2.2,15.4,3.6c9.7,2.7,19.3,5.2,28.9,8.4
			c9.8,3.2,19.6,7.2,28.6,12.5c4.4,2.5,8.7,5.7,12.7,8.8c1.9,1.5,3.5,3,5.2,4.8c1.7,1.9,3.9,3.1,5.6,5c3.7,4.1,7.5,8.5,10.8,12.9
			c1.8,2.3,3.4,4.8,5,7.3c1.1,1.7,4,4.9,3.3,7.2c-0.4,1.2-1.6,2-2.7,1.7c-0.4-0.1-0.7-0.6-1-0.7c-1.1-0.2-0.1-0.6-1.4,0
			c-2.6,1.1-3.4,3.4-6.6,2.8c-5.5-0.9-10.7-3.7-15.8-6.1c-1.4,5.9-1.6,12-2.9,18c-1.2,5.8-3.3,11.4-5.7,16.7
			c-2.2,4.7-4.9,9.7-8.8,13c-2.9,2.6-10.1,5.7-12.3,0.3c-0.9-2.3,0.4-5.9,0.8-8.3c0.5-3.2,1.1-6.4,1.4-9.6c0.3-2.6,0.4-5.3,0.6-7.9
			c0.2-2.3,0.8-7.1-0.4-9.1c-0.7-1.2-0.8,0-1.2,1.2c-0.5,1.5-0.9,2.9-1.3,4.4c-0.8,3.2-1.5,6.4-2.2,9.6c-1.3,5.7-2.8,11.3-5.5,16.4
			c-2.4,4.6-5.9,9.6-11.1,10.3c-2.4,0.3-5.6-0.9-7.5-2.6C673.4,193.5,674.1,190.2,674.1,187.5L674.1,187.5z"/>
		<path id="Fill-3" class="st2" d="M554.8,420.6c2.9-0.6,5.3-3.1,7.6-4.9c3-2.4,5.8-4.9,8.7-7.4c5.5-4.7,10.4-9.8,15.2-15.4
			c9.3-11,16.3-25.1,19.5-39.6c1.6-7.3,3.6-15.9,2.7-23.4c-0.3-2.6-0.8-3.1-3.2-3.4c-1.1-0.1-3.8-0.5-4.8,0
			c-2.5,1.2-3.9,6.2-4.6,8.8c-2.2,7.5-3.5,15.2-5.5,22.8c-2,7.4-5.1,14.9-8.2,21.8C575.2,395.2,565.5,408.1,554.8,420.6
			 M611.7,335.6c-1.7,21-7.1,40.9-19.3,57.8c-5.8,8-12.6,15-19.9,21.4c-7.6,6.5-15.4,12.7-24,17.6c-2.3,1.3-4.6,2.6-6.9,3.8
			c-1.3,0.7-4.5,3.2-6,2.8c-1.2-0.3-1.5-1.3-1.7-2.6c-0.4-2.9,1.3-4.3,3.1-6.2c7.1-7.5,14.2-14.9,20.8-22.9
			c13.1-15.7,22.9-34.4,28.4-54.6c1.7-6.2,3.2-12.5,5-18.7c1.1-3.8,2.7-10.5,6.4-12.4c2-1,4.3,0,6.4-0.6c1.9-0.6,3.2-1.7,4.9,0.2
			C611.8,324.6,611.9,331.3,611.7,335.6"/>
		<path id="Fill-5" class="st1" d="M92.8,456.5c-1.5,0.6-1.5,1.1-2.2-0.5c-0.3-0.8-0.2-1.9-0.2-2.8c0.2-2,1.2-3.9,2-5.7
			c7.6,6.8,15.6,12.9,23.8,18.9c8.8,6.4,17.1,13.5,25.4,20.6c7.4,6.3,14.9,12.5,22.3,18.9c3.5,3.1,7.6,5.5,10.9,8.7
			c2.7,2.6,7.2,3.7,9.5,6.8c-3.7,2.4-8.6,4.3-12.6,2.2c-4.5-2.3-7.9-5.2-11.9-8.2c-2.1-1.6-4.2-3-6.3-4.5c-1.8-1.3-3.1-3.3-5-4.5
			c-3.9-2.6-7.9-5.5-11.6-8.6c-3.8-3.1-8-5.6-11.7-8.8c-3.8-3.4-8-5.6-11.9-8.7C104.9,473.8,97.5,466.5,92.8,456.5"/>
		<path id="Fill-8" class="st3" d="M318,111.2c-0.1,0.6-0.2,1.2-0.3,1.8c0.1,0,5.1-10.4,5.9-11.6c2.8-4.2,6.5-7.8,10-11.3
			c7.5-7.5,16.2-13.6,23.5-21.2c2.4-2.5,6.7-6.3,5.8-10.6c-0.9-4.2-8.9-3.4-11.7-2.1c-4.3,1.9-7.8,5.9-11,9.4
			c-3.5,3.8-7,7.6-9.9,11.9c-3.2,4.7-6.2,9.7-8.2,15.1C319.9,98.6,319,104.9,318,111.2 M319.6,129.8c-3.4,1.1,0.9,1.9-0.5,3.8
			c-1.5,2.1-3.9-4.4-4.3-5.7c-2.2-7.3-1.2-16.2,0-23.7c0.6-3.8,1-7.6,1.8-11.3c0.8-3.6,2.5-7.1,4.1-10.4c3.2-6.6,7.3-12.7,12.1-18.1
			c4.8-5.4,10-10.8,16.3-14.1c5.2-2.7,13.4-0.8,15.8,5.2c2.5,6.1-0.9,12.8-4.8,17.1c-5.2,5.6-10.8,11.2-16.6,16
			c-3,2.5-5.5,5.5-8.4,8.1c-3.1,2.8-5.8,5.5-8,9.1c-2.2,3.5-4.5,6.9-5.9,10.9C319.5,121,319.6,125.2,319.6,129.8"/>
		<path id="Fill-10" class="st1" d="M184.1,393.8c-7.8-5.4-15.6-10.1-22.4-17c-6.7-6.8-12.5-14.4-20-20.3c-3.7-2.9-7.6-5.7-11.2-8.7
			c-3.5-2.9-7.5-5.3-10.6-8.6c-4.2-4.4-12-12.5-6.7-19c6.6,8.5,15.7,15.1,24,21.6c8.7,6.8,16.8,14.7,25,22.1
			c8,7.1,15.9,14.3,23.7,21.6c2,1.9,4,3.9,6.1,5.8c0.3,0.2,2.4,1.7,2.4,2.1c0,0.9-1.7,1.5-2.3,1.8c-0.9,0.4-3.5,1.4-4.5,1.1
			c-0.6-0.2-0.6-0.7-1-1c-0.2-0.5-0.5-0.9-0.8-1.3C185.3,393.8,184.7,393.8,184.1,393.8"/>
		<path id="Fill-12" class="st4" d="M642.5,299.8c-5.6-0.2-14-0.2-13.7,8c0.2,4,2.2,7,3.9,10.4c1.8,3.6,3.1,7.4,3.6,11.4
			c2.1,16.5-3.5,32.5-8.6,47.7c10.9-9.4,18.7-22.5,22.8-36.9c2-7,2.8-15.9,2.1-23.2c-0.3-3.6-1.6-6.9-3.1-10.1
			c-0.8-1.6-1.5-3.5-2.7-4.8C645.6,301.1,644,300.7,642.5,299.8 M623.1,386.8c-3.6-6.3,2.1-15.7,3.9-21.8c2.2-7.4,4.2-15.1,5.2-22.8
			c1-8.1-0.3-14.3-3.8-21.5c-3.1-6.4-5-14.9-1.5-21.6c1.4-2.7,3.5-3,5.9-4.1c3-1.3,3.8-3.6,7.5-3.2c6.6,0.6,9.6,7.3,12.1,13
			c5.7,13.3,4.2,30.5-0.7,43.9c-2.8,7.7-6,15.7-10.7,22.2c-2.3,3.2-5.1,6-7.9,8.7C630,382.5,627.2,386,623.1,386.8"/>
		<path id="Fill-14" class="st5" d="M247.6,155.7c-8.7,1.9-16.6,6.1-18,16.5c-1.3,9.5,4.8,18.3,12.2,22.8c8,4.8,18,5.6,26,0.3
			c8.4-5.6,10.3-16.9,5.2-25.7C267.3,159.7,257.8,156.8,247.6,155.7 M253.2,151.2c10.3,1.6,19.9,9.5,23.4,20.2c3.6,11,0.3,23-9.2,29
			c-19.2,12.1-44.8-8.1-40.2-31.3c1.2-5.9,4.5-10.5,9-13.9C241.2,151.2,247.3,151.1,253.2,151.2"/>
		<path id="Fill-16" class="st6" d="M620.2,39.8c-12.4-6-24.9-12.1-37.3-18.1c-0.5,6.1-1,12.1-1.5,18.2c-0.1,1.6-0.7,3.9-0.5,5.5
			c0.3,1.7-0.3,1.5,1.8,1.3c2.7-0.3,5.4-1,8-1.5c4.8-0.9,9.8-1.2,14.5-2.5c2.4-0.7,4.7-0.8,7.1-1.2C614.9,41,617.5,40.1,620.2,39.8
			 M578.1,51.6c0-6.8,0.7-13.6,1.3-20.4c0.5-6.1,0.7-11.9,2.6-17.8c1.7,3.4,6.5,4.7,9.5,6.5c4.1,2.4,8.5,4.2,12.6,6.4
			c4.1,2.1,8.1,4.6,12.2,6.8c2.1,1.1,4.2,2.1,6.3,3.2c1.3,0.7,4.4,1.8,5.2,3.1c2.5,3.9-6,4.2-7.6,4.6c-4.9,1-9.8,1.6-14.7,2.7
			c-4.5,1-9.1,1.9-13.7,2.8C587.4,50.2,582.7,51.6,578.1,51.6"/>
		<path id="Fill-19" class="st7" d="M194.6,220.5c4.9-0.5,9.8-1.3,14.7-1.9c4.6-0.5,8.7-1,13-3.3c-5.8-1.9-11.6-3.6-17.4-5.3
			c-2.9-0.8-5.8-1.7-8.7-2.5c-2.2-0.6-4.2-1-5.1-3.6c-1-3.1,1.8-2.6,3.5-1.8c2.4,1.1,5,1.7,7.5,2.6c5.6,2,11.2,3.8,16.8,5.6
			c1.7,0.6,11.9,2.6,8.2,6.3c-1.6,1.6-5,2.4-6.9,3.5c-2.4,1.4-5.1,2-7.8,2.6c-5.7,1.2-11.5,1.6-17.3,2.7c-2.9,0.5-5.9,1.1-8.8,1.6
			c-1.7,0.3-2.4,0.3-2.8-1.8c-0.3-1.5,0.1-3,0.4-4.4c0.8-3.7,1.7-7.3,2.6-11c0.3-1.4,0.9-7.5,2.1-8.2c2.6-1.5,0.6,7,0.4,8
			c-0.7,3.9-1.6,7.8-2,11.8C189.4,221.1,192,220.9,194.6,220.5"/>
		<path id="Fill-21" class="st8" d="M264,251.8c1,2.6-0.6,3.2-2.6,4.1c-2.5,1.2-5,2.4-7.6,3.5c-5.4,2.2-10.9,4.3-16.2,6.9
			c-10.1,4.9-20.4,9.7-30.4,14.9c-2.5,1.3-5,2.6-7.5,3.9c-2.6,1.3-5.6,3.5-8.3,4.2c-2.4,0.7-2.7-1.2-1.2-2.9c1.8-2.2,4.7-3.8,7-5.4
			c9.5-6.3,19.9-11.4,30.3-15.7C239.6,260.3,251.6,255.6,264,251.8"/>
		<path id="Fill-23" class="st1" d="M290.5,103c-0.3-8,0.6-16,0.1-23.9c-10.2,9.7-5.2,24.7,0.7,35.2L290.5,103z M294.9,102.5
			c0.1,3.9,0.3,7.8-0.1,11.7c-0.4,4.1,1.4,6.2,3.7,9.2c-2,2.1-6.5-2.9-7.7-4.3c-2.6-3-4.5-7.1-6.2-10.7c-3.6-7.8-6.1-16.1-3.2-24.6
			c1.1-3.2,2.4-7.5,5.2-9.3c3.1-2,5.5,0.8,6.8,3.8C296.6,85.3,294.2,94.9,294.9,102.5L294.9,102.5z"/>
		<path id="Fill-25" class="st9" d="M402.7,498.9c4.7,0.4,9.3,0.8,14,1.1c-0.8-6.9-1.6-13.8-2.4-20.7c-2.7,0.7-5.4,1.4-8.1,2
			c-1.3,0.3-3.3,0.4-4.4,1.1c-0.4,0.1-0.8,0.2-1.3,0.3c0,0.9,0,1.8,0,2.7c0,2.7-0.1,5.3-0.2,8c0,1.1-0.4,2.7-0.2,3.8
			c-0.4,1.1-0.2,1.6,0.8,1.4C401.5,498.7,402.1,498.8,402.7,498.9 M399.4,503.9c-3.7-2-2.7-8-2.7-11.8c0-2.4,0.2-4.9,0.2-7.3
			c0-1.7-0.3-3.7,0.2-5.4c1-2.9,5.6-2.8,8-2.6c1.8,0.1,3.3,0.1,5.1-0.1c0.9-0.1,1.9,0.1,2.8-0.2c0.2-0.1,2-1.4,1.9-1.4
			c3.2,0.1,3.3,8.4,3.5,10.5c0.5,5.2,1,10.4,1.4,15.6c0.1,1.4,0.6,2.9-0.6,3.7c-1.1,0.7-4,0-5.2,0
			C409.1,504.8,404.3,504,399.4,503.9"/>
		<path id="Fill-27" class="st10" d="M629,195.9c2.1,2.1,1.1,4.2,0.4,6.7c-0.4,1.5-2.7,6.6-2.1,8c0.7,1.7,4.2,2.1,5.7,2.6
			c2.6,0.9,5.1,1.8,7.6,3.1c1.1,0.6,5,1.9,5.7,3c0.4,0.6,0.6,1.1,0.3,1.9c-0.6,1.4-1.3,0.7-2.7,0.4c-6.1-1.4-12.2-3.1-17.9-6
			c-1.6,4-2.9,8-4.3,12.1c-0.4,1.2-0.8,3.9-2.3,4.1c-1.8,0.2-1.8-2.4-1.7-3.8c0.2-2.1,1.2-4.3,1.8-6.2c0.5-1.6,2.2-5,2-6.6
			c-0.1-1.1-0.8-1.1-2-1.5c-1.1-0.4-2.2-0.8-3.3-1.3c-1.8-0.7-3.5-1.4-5.2-2.2c-0.9-0.4-2.9-1-3.6-1.9c-0.4-0.5-0.8-2.5-0.3-3
			c1.2-1.3,8.9,2.1,10.5,2.6c1.1,0.3,2.1,0.5,3.1,0.9c0.4,0.2,0.8,0.8,1.3,0.8c1.8,0.1,1.9-1.4,2.5-2.9
			C625.7,202.9,627,199.2,629,195.9"/>
		<path id="Fill-29" class="st11" d="M186.5,268.7c-0.9-2.5,9.1-5.5,11-6.3c4.6-2,9.4-3.3,14.1-4.9c4.6-1.5,9.2-3.2,13.8-5
			c1.4-0.6,11.6-5.9,12.1-5.1c1.8,2.6-19.5,10.6-21.6,11.4C206.2,262.6,196.3,265.4,186.5,268.7"/>
		<path id="Fill-31" class="st1" d="M618.5,73.7c-2.6,0-6.4,0.8-8.7-0.3C612.7,73.4,615.6,73.6,618.5,73.7"/>
		<path id="Fill-35" class="st1" d="M253.2,151.2l-5.8,0C249.3,150.7,251.2,150.4,253.2,151.2"/>
		<path id="Fill-37" class="st1" d="M554.7,149.5c1.4,0,2.7,0,4.1,0C557.4,149.5,556.1,149.5,554.7,149.5"/>
		<path id="Fill-39" class="st1" d="M674.1,187.5c0,1.6,0,3.1,0,4.7C674.1,190.6,674.1,189.1,674.1,187.5"/>
		<path id="Fill-41" class="st1" d="M405.2,476.8c-1.5,0.1-2.9,0.2-4.3,0.3C402.3,477,403.8,476.9,405.2,476.8"/>
		<path id="Fill-43" class="st1" d="M413.4,177.7c-1.5,0.1-2.9,0.3-4.4,0.4C410.4,177.9,411.9,177.8,413.4,177.7"/>
		<path id="Fill-45" class="st1" d="M565.8,149c1,0,2.1,0,3.1,0C567.9,149,566.8,149,565.8,149"/>
		<path id="Fill-47" class="st1" d="M356.1,180.7c-1.3,0.1-2.6,0.3-3.9,0.4C353.5,181,354.8,180.9,356.1,180.7"/>
		<path id="Fill-49" class="st1" d="M413.3,81.4c-1.3,0-2.6,0-3.9,0C410.7,80.7,412,80.9,413.3,81.4"/>
		<path id="Fill-51" class="st1" d="M176.9,322.1c-1.1-0.1-2,0.5-2.6-0.6C175.3,320.7,175.9,321.7,176.9,322.1"/>
		<path id="Fill-53" class="st1" d="M376.7,229.2l-3.4-0.4L376.7,229.2z"/>
		<path id="Fill-55" class="st1" d="M399.4,503.9c0.7,0,1.5,0,2.2,0.1C400.9,503.9,400.2,503.9,399.4,503.9"/>
		<path id="Fill-57" class="st1" d="M572,75.9c-1.2,0.1-2.3,0.2-3.5,0.3C569.7,76.2,570.9,76,572,75.9"/>
		<path id="Fill-59" class="st1" d="M205.1,453.4c-1.1,0-2.2,0-3.3,0C202.9,453.4,204,453.4,205.1,453.4"/>
		<path id="Fill-61" class="st1" d="M115.7,432.2c-1.1,0-2.2,0-3.4,0C113.5,432.2,114.6,432.2,115.7,432.2"/>
		<path id="Fill-63" class="st1" d="M399.3,178.7c-1.1,0.1-2.3,0.2-3.4,0.4C397.1,178.9,398.2,178.8,399.3,178.7"/>
		<path id="Fill-65" class="st1" d="M367.5,180.7c-1.1-0.1-2.2-0.3-3.4-0.4C365.3,180.5,366.5,179.6,367.5,180.7"/>
		<path id="Fill-67" class="st1" d="M469.1,229c0.7-0.1,1.7-0.3,2.4-0.2C471.4,229.2,469.4,229,469.1,229"/>
		<path id="Fill-69" class="st1" d="M398,323.5c0.8,0,1.5,0,2.2,0C399.5,323.6,398.7,323.6,398,323.5"/>
		<path id="Fill-71" class="st1" d="M330,227.3c-1.1,0.1-2.2,0.2-3.3,0.3C327.8,227.5,328.9,227.4,330,227.3"/>
		<path id="Fill-73" class="st1" d="M207.1,223.3c0.6,0,1.2,0,1.8,0.1C208.2,223.3,207.6,223.3,207.1,223.3"/>
		<path id="Fill-75" class="st1" d="M368.9,228.2c-0.9,0-1.9,0-2.8-0.1C367.1,228.1,368,228.2,368.9,228.2"/>
		<path id="Fill-77" class="st1" d="M194.6,220.5c-0.9,0.1-1.9,0.3-2.8,0.4C192.7,220.8,193.6,220.7,194.6,220.5"/>
		<path id="Fill-79" class="st1" d="M324.9,211.9c0.6,0,1.2,0.1,1.8,0.1C326,211.9,325.5,211.9,324.9,211.9"/>
		<path id="Fill-81" class="st1" d="M369.6,317.9c0.6,0,1.2-0.1,1.8-0.1C370.8,317.8,370.2,317.8,369.6,317.9"/>
		<path id="Fill-83" class="st1" d="M415.2,234.9c-1-0.1-1.9-0.3-2.9-0.4C413.3,234.6,414.2,234.7,415.2,234.9"/>
		<path id="Fill-85" class="st1" d="M184.1,393.8c0.6,0,1.2,0,1.9,0C185.3,393.8,184.7,393.8,184.1,393.8"/>
		<path id="Fill-87" class="st1" d="M133,310.8c-1-0.1-2-0.2-3-0.3C131,310.6,132,310.7,133,310.8"/>
		<path id="Fill-89" class="st1" d="M111.9,432.3c-1,0.1-1.9,0.2-2.9,0.4C109.9,432.6,110.9,432.5,111.9,432.3"/>
		<path id="Fill-91" class="st1" d="M642.4,149.3c-0.1,0.9-0.2,1.8-0.2,2.7C642.3,151.1,642.4,150.2,642.4,149.3"/>
		<path id="Fill-93" class="st1" d="M210.9,452.5c-1,0.1-2,0.2-2.9,0.4C209,452.7,209.9,452.6,210.9,452.5"/>
		<path id="Fill-95" class="st1" d="M201.3,453.5c-1,0.7-2,0.8-3,0C199.3,453.5,200.3,453.5,201.3,453.5"/>
		<path id="Fill-97" class="st1" d="M182.5,454.4c-1,0-1.9,0-2.9,0C180.6,454.4,181.6,454.4,182.5,454.4"/>
		<path id="Fill-99" class="st1" d="M294.9,102.5c-0.1-0.9-0.2-1.8-0.2-2.7C294.7,100.7,294.8,101.6,294.9,102.5"/>
		<path id="Fill-101" class="st1" d="M399.8,82.1c-1,0.1-1.9,0.3-2.9,0.4C397.9,82.3,398.8,82.2,399.8,82.1"/>
		<path id="Fill-103" class="st1" d="M403.2,81.6c-1,0.1-2,0.2-2.9,0.4C401.3,81.8,402.3,81.7,403.2,81.6"/>
		<path id="Fill-105" class="st1" d="M250.9,203.7c0.6,0,1.2,0,1.8,0C252.1,203.6,251.5,203.7,250.9,203.7"/>
		<path id="Fill-115" class="st1" d="M338.3,193.5c3.2-0.6,6.4-0.8,9.6,0L338.3,193.5z"/>
		<path id="Fill-117" class="st1" d="M423.7,154.8c0.7-1.9,0.8-2.6,2.5-3.5C425.5,153.1,425.4,154,423.7,154.8"/>
		<path id="Fill-121" class="st1" d="M501.8,340c0.1,1.9,0.1,3.9,0.2,5.8C502,343.9,501.9,342,501.8,340"/>
		<path id="Fill-123" class="st1" d="M618,78.2c-1.4,0-2.9,0.1-4.3,0.1C615.1,78.2,616.6,78.2,618,78.2"/>
		<path id="Fill-125" class="st1" d="M424.9,374.6c0.1,1.6,0.1,3.2,0.2,4.9C425,377.8,425,376.2,424.9,374.6"/>
		<path id="Fill-127" class="st1" d="M247.4,322.6c1.5,0,2.9,0,4.4,0C250.3,322.7,248.8,322.6,247.4,322.6"/>
		<path id="Fill-131" class="st1" d="M371.8,239.3c-0.9,0-1.8,0-2.6,0C370,239.3,370.9,239.3,371.8,239.3"/>
		<path id="Fill-133" class="st1" d="M368.9,187.7c-0.7,0-1.5-0.1-2.2-0.1C367.5,187.7,368.2,187.7,368.9,187.7"/>
		<path id="Fill-135" class="st1" d="M265.2,322.1c1.1-0.1,2.3-0.2,3.4-0.4C267.5,321.9,266.3,322,265.2,322.1"/>
		<path id="Fill-137" class="st1" d="M240.2,322.7c1.1,0,2.2,0,3.4-0.1C242.5,322.7,241.4,322.7,240.2,322.7"/>
		<path id="Fill-139" class="st1" d="M252.2,322.7c1.2-0.1,2.3-0.2,3.5-0.3C254.5,322.4,253.4,322.6,252.2,322.7"/>
		<path id="Fill-141" class="st1" d="M256.4,324.6c-0.6,0-1.2,0-1.7,0C255.3,324.6,255.9,324.6,256.4,324.6"/>
		<path id="Fill-143" class="st1" d="M501.3,296.8c0.1-0.9,0.2-1.8,0.3-2.7C501.5,294.9,501.4,295.8,501.3,296.8"/>
		<path id="Fill-145" class="st1" d="M328,204.3c0.7,0.1,1.5,0.1,2.2,0.2c-0.8,0-1.6,0.1-2.4,0.1C327.7,204.5,327.8,204.4,328,204.3
			"/>
		<path id="Fill-147" class="st1" d="M515.1,358.1c0-0.8-0.1-1.7-0.1-2.5C515,356.5,515,357.3,515.1,358.1"/>
		<path id="Fill-149" class="st1" d="M341,201.1c-0.6,0-1.2,0-1.7,0C339.9,201.2,340.5,201.2,341,201.1"/>
		<path id="Fill-151" class="st1" d="M555,306.3c1,0.1,1.9,0.2,2.9,0.4C557,306.5,556,306.4,555,306.3"/>
		<path id="Fill-153" class="st1" d="M352.6,237.3c-0.6,0-1.2,0-1.8,0C351.5,237.3,352,237.3,352.6,237.3"/>
		<path id="Fill-155" class="st1" d="M318,111.2c0.6,0.4,0.3,1.9-0.3,1.8C317.8,112.4,317.9,111.8,318,111.2"/>
		<path id="Fill-157" class="st1" d="M642.5,299.8c-0.6,0-1.2,0-1.7,0C641.3,299.8,641.9,299.8,642.5,299.8"/>
		<path id="Fill-159" class="st1" d="M290.5,103c-0.1-1.4-0.1-2.8-0.2-4.2C290.4,100.2,290.4,101.6,290.5,103"/>
		<path id="Fill-161" class="st1" d="M400,498.4c0.9,0.1,1.8,0.3,2.7,0.4C401.8,498.7,400.9,498.6,400,498.4"/>
		<path id="Fill-163" class="st1" d="M394.1,138.4c-3.1,0.7-6.4,1.1-9.4,2.1c-0.8,0.3-3.3,1.8-4.2,1.4c-1.4-0.6-0.7-2.2-0.1-3.1
			c1.6-2.3,4.4-3.6,7-3.6C389.9,135.3,393.4,135.2,394.1,138.4"/>
		<path id="Fill-165" class="st1" d="M385.4,144.6c3.5,2.6,6.1,3.9,6.4-2c3.7,0.5,2.1,7-0.8,7.5
			C387.9,150.7,385.9,147.4,385.4,144.6"/>
	</g>
</g>
</svg>
